<svg xmlns="http://www.w3.org/2000/svg" id="Capa_2" data-name="Capa 2" viewBox="0 0 231.24 37.38"><defs><style>      .cls-1 {        fill: #00c8bd;      }      .cls-2 {        fill: #fff;      }    </style></defs><g id="Capa_1-2" data-name="Capa 1"><g><g><path class="cls-2" d="m56.49,1.87c-2.49,1.24-4.42,2.98-5.78,5.24-1.36,2.26-2.04,4.87-2.04,7.85v7.48c0,2.98.68,5.59,2.04,7.85,1.36,2.26,3.3,4,5.8,5.24,2.51,1.24,5.39,1.86,8.65,1.86h11.2v-7.58h-11.2c-2.29,0-4.14-.7-5.55-2.11-1.41-1.41-2.12-3.26-2.12-5.55v-6.95c0-2.29.7-4.14,2.09-5.55,1.39-1.41,3.23-2.11,5.52-2.11h11.25V.01h-11.25c-3.26,0-6.13.62-8.62,1.86Z"></path><path class="cls-2" d="m157.16,1.87c-2.49,1.24-4.42,2.98-5.78,5.24-1.36,2.26-2.04,4.87-2.04,7.85v7.48c0,2.98.68,5.59,2.04,7.85,1.36,2.26,3.3,4,5.8,5.24,2.51,1.24,5.39,1.86,8.65,1.86h10.1v-7.58h-10.1c-2.29,0-4.14-.7-5.55-2.11-1.41-1.41-2.12-3.26-2.12-5.55v-6.95c0-2.29.7-4.14,2.09-5.55,1.39-1.41,3.23-2.11,5.52-2.11h10.14V.01h-10.14c-3.26,0-6.13.62-8.62,1.86Z"></path><path class="cls-2" d="m107.07,1.3c-1.77-.86-3.82-1.29-6.13-1.29h-18.8v37.37h8.84v-15.23h6.06l6.25,15.23h9.35l-6.82-16.03c2.13-.72,3.8-1.92,5.01-3.6,1.21-1.68,1.81-3.67,1.81-5.99v-1.36c0-2.07-.49-3.88-1.46-5.45-.97-1.57-2.34-2.78-4.11-3.64Zm-3.27,9.99c0,1-.31,1.81-.92,2.42-.61.61-1.42.92-2.42.92h-9.49v-7.1h9.49c1,0,1.81.31,2.42.92.61.61.92,1.42.92,2.42v.42Z"></path><polygon class="cls-2" points="127.15 22.15 143.98 22.15 143.98 14.63 127.15 14.63 127.15 7.53 144.92 7.53 144.92 0 118.32 0 118.32 37.37 145.39 37.37 145.39 29.85 127.15 29.85 127.15 22.15"></polygon><polygon class="cls-2" points="208.54 7.53 208.54 0 181.47 0 181.47 37.37 208.54 37.37 208.54 29.85 190.3 29.85 190.3 22.15 207.13 22.15 207.13 14.63 190.3 14.63 190.3 7.53 208.54 7.53"></polygon></g><polygon class="cls-1" points="231.24 18.99 231.17 32.72 227.35 37.37 215.37 37.37 230.72 18.19 215.37 0 228.23 0 231.24 3.69 231.24 18.99"></polygon><g><polygon class="cls-2" points="27.96 18.2 11.88 37.37 0 37.37 15.78 18.33 .93 0 12.91 0 27.96 18.2"></polygon><polygon class="cls-1" points="27.96 19 28.04 32.72 31.86 37.37 43.83 37.37 28.48 18.19 43.83 0 30.97 0 27.96 3.7 27.96 19"></polygon></g></g></g></svg>